<svg width="104" height="104" viewBox="0 0 104 104" fill="none" xmlns="http://www.w3.org/2000/svg">
<g clip-path="url(#clip0_1097_828)">
<g filter="url(#filter0_dd_1097_828)">
<rect x="-14.2969" y="20.7969" width="62.4" height="62.4" rx="5.2" fill="white"/>
</g>
<path d="M21.1003 39.9289C23.7977 38.4453 26.8297 37.6766 29.908 37.6957C30.6228 37.7001 31.1999 38.2808 31.1999 38.9956C31.1999 42.649 30.1751 49.0157 23.5918 53.8373C23.7026 54.3021 23.8286 54.9139 23.9158 55.59C24.0108 56.3276 24.0643 57.1767 23.9867 58.0122C23.9101 58.8364 23.6973 59.7436 23.1816 60.5171L23.1804 60.5188C22.2978 61.8382 20.6332 62.6031 19.4703 63.0249C18.8455 63.2516 18.2682 63.4123 17.8481 63.5165C17.5314 63.5951 17.2991 63.6427 17.1938 63.6633C16.7931 63.7395 16.3849 63.6594 16.0668 63.3939C15.7709 63.1469 15.5999 62.7814 15.5999 62.3959V56.4341L12.4618 53.296H6.49993C6.11452 53.296 5.74897 53.125 5.50197 52.8291C5.25498 52.5332 5.152 52.143 5.22083 51.7638C5.26468 51.5234 5.32053 51.2849 5.37934 51.0478C5.48354 50.6277 5.64431 50.0504 5.87097 49.4256C6.29276 48.2627 7.05772 46.5981 8.3771 45.7155L8.37882 45.7143C9.15231 45.1986 10.0594 44.9859 10.8837 44.9092C11.7192 44.8316 12.5683 44.8851 13.3058 44.9801C13.989 45.0682 14.6066 45.1959 15.0732 45.3076C16.6473 43.0859 18.7067 41.2454 21.1003 39.9289Z" fill="#111827"/>
<path fill-rule="evenodd" clip-rule="evenodd" d="M9.10403 55.8808C8.08592 55.8493 7.09204 56.1948 6.313 56.851C5.62819 57.4265 5.12537 58.2194 4.75294 58.9818C4.3731 59.7595 4.08444 60.5987 3.86883 61.3525C3.65202 62.1104 3.50134 62.8095 3.4048 63.3179C3.35635 63.5731 3.32112 63.7825 3.29772 63.9301C3.28502 64.0102 3.27312 64.0905 3.26177 64.1708L3.26148 64.173C3.2078 64.5745 3.34428 64.9785 3.63071 65.265C3.91714 65.5514 4.32182 65.6878 4.72332 65.6341C4.80418 65.6227 4.88494 65.6107 4.9656 65.598C5.11319 65.5746 5.32259 65.5393 5.57773 65.4909C6.08621 65.3943 6.78527 65.2437 7.54321 65.0269C8.29701 64.8112 9.13621 64.5226 9.91386 64.1427C10.676 63.7704 11.4686 63.2678 12.0441 62.5834C13.3714 61.0114 13.3913 58.563 11.8463 57.0377L11.8305 57.0223C11.0934 56.3188 10.1225 55.9123 9.10403 55.8808Z" fill="#111827"/>
<g filter="url(#filter1_dd_1097_828)">
<rect x="55.8984" y="20.7969" width="62.4" height="62.4" rx="5.2" fill="white"/>
</g>
<g filter="url(#filter2_dd_1097_828)">
<rect x="20.7969" y="-49.3984" width="62.4" height="62.4" rx="5.2" fill="#FAFAFA"/>
</g>
<g filter="url(#filter3_dd_1097_828)">
<rect x="20.7969" y="91" width="62.4" height="62.4" rx="5.2" fill="#FAFAFA"/>
</g>
<rect width="104" height="104" fill="url(#paint0_radial_1097_828)" fill-opacity="0.4"/>
<path fill-rule="evenodd" clip-rule="evenodd" d="M92.6154 39H81.588C80.5415 39 79.6779 39 78.9743 39.0575C78.2436 39.1172 77.5719 39.2453 76.9409 39.5668C75.9625 40.0653 75.167 40.8608 74.6685 41.8393C74.347 42.4702 74.2188 43.1419 74.1591 43.8726C74.1017 44.5762 74.1017 45.4399 74.1017 46.4863L74.1016 54.7789C74.1011 55.8129 74.1006 56.5807 74.2789 57.2459C74.7597 59.0403 76.1613 60.442 77.9558 60.9228C78.3555 61.0299 78.7923 61.0725 79.3017 61.0893L79.3017 62.8822C79.3016 63.1881 79.3016 63.4998 79.3248 63.7553C79.347 63.9996 79.4057 64.4608 79.7277 64.8641C80.0982 65.3282 80.6599 65.5982 81.2538 65.5976C81.7699 65.597 82.1667 65.3548 82.3713 65.2195C82.5853 65.0781 82.8287 64.8833 83.0675 64.6922L86.2046 62.1825C86.8787 61.6432 87.0789 61.4909 87.2869 61.3847C87.4955 61.2781 87.7175 61.2002 87.947 61.1531C88.1758 61.1061 88.4272 61.1 89.2906 61.1H92.6154C93.6619 61.1 94.5255 61.1 95.2291 61.0425C95.9598 60.9828 96.6315 60.8547 97.2624 60.5332C98.2409 60.0347 99.0364 59.2392 99.5349 58.2608C99.8564 57.6298 99.9845 56.9581 100.044 56.2274C100.102 55.5238 100.102 54.6602 100.102 53.6137V46.4863C100.102 45.4398 100.102 44.5762 100.044 43.8726C99.9845 43.1419 99.8564 42.4702 99.5349 41.8393C99.0364 40.8608 98.2409 40.0653 97.2624 39.5668C96.6315 39.2453 95.9598 39.1172 95.2291 39.0575C94.5255 39 93.6618 39 92.6154 39ZM89.042 46.15C89.042 45.073 89.9151 44.2 90.992 44.2C92.069 44.2 92.942 45.073 92.942 46.15C92.942 47.227 92.069 48.1 90.992 48.1C89.9151 48.1 89.042 47.227 89.042 46.15ZM81.1121 51.6101C81.6846 51.1807 82.4961 51.295 82.928 51.8647C83.0081 51.9669 83.0963 52.0631 83.1861 52.1568C83.3776 52.3567 83.6653 52.6277 84.0379 52.8987C84.7881 53.4443 85.8252 53.9501 87.0921 53.9501C88.3589 53.9501 89.396 53.4443 90.1462 52.8987C90.5188 52.6277 90.8065 52.3567 90.998 52.1568C91.0878 52.0631 91.176 51.9669 91.2561 51.8647C91.688 51.295 92.4995 51.1807 93.0721 51.6101C93.6464 52.0409 93.7628 52.8557 93.3321 53.4301C93.3353 53.4258 93.3276 53.4355 93.3143 53.4523C93.2827 53.4921 93.2193 53.5718 93.1977 53.5975C93.1214 53.6884 93.0136 53.8114 92.8752 53.9558C92.5995 54.2435 92.1966 54.6224 91.6754 55.0014C90.6381 55.7558 89.0752 56.5501 87.0921 56.5501C85.1089 56.5501 83.546 55.7558 82.5087 55.0014C81.9875 54.6224 81.5846 54.2435 81.3089 53.9558C81.1706 53.8114 81.0627 53.6884 80.9864 53.5975C80.9483 53.5521 80.9179 53.5145 80.8955 53.4862C80.4464 52.906 80.5068 52.064 81.1121 51.6101ZM83.192 44.2C82.1151 44.2 81.242 45.073 81.242 46.15C81.242 47.227 82.1151 48.1 83.192 48.1C84.269 48.1 85.142 47.227 85.142 46.15C85.142 45.073 84.269 44.2 83.192 44.2Z" fill="#7868E6"/>
</g>
<defs>
<filter id="filter0_dd_1097_828" x="-19.4969" y="18.1969" width="72.7984" height="72.7984" filterUnits="userSpaceOnUse" color-interpolation-filters="sRGB">
<feFlood flood-opacity="0" result="BackgroundImageFix"/>
<feColorMatrix in="SourceAlpha" type="matrix" values="0 0 0 0 0 0 0 0 0 0 0 0 0 0 0 0 0 0 127 0" result="hardAlpha"/>
<feOffset dy="2.6"/>
<feGaussianBlur stdDeviation="2.6"/>
<feComposite in2="hardAlpha" operator="out"/>
<feColorMatrix type="matrix" values="0 0 0 0 0 0 0 0 0 0 0 0 0 0 0 0 0 0 0.06 0"/>
<feBlend mode="normal" in2="BackgroundImageFix" result="effect1_dropShadow_1097_828"/>
<feColorMatrix in="SourceAlpha" type="matrix" values="0 0 0 0 0 0 0 0 0 0 0 0 0 0 0 0 0 0 127 0" result="hardAlpha"/>
<feMorphology radius="1.3" operator="dilate" in="SourceAlpha" result="effect2_dropShadow_1097_828"/>
<feOffset/>
<feGaussianBlur stdDeviation="0.65"/>
<feComposite in2="hardAlpha" operator="out"/>
<feColorMatrix type="matrix" values="0 0 0 0 0 0 0 0 0 0 0 0 0 0 0 0 0 0 0.02 0"/>
<feBlend mode="normal" in2="effect1_dropShadow_1097_828" result="effect2_dropShadow_1097_828"/>
<feBlend mode="normal" in="SourceGraphic" in2="effect2_dropShadow_1097_828" result="shape"/>
</filter>
<filter id="filter1_dd_1097_828" x="50.6984" y="18.1969" width="72.7984" height="72.7984" filterUnits="userSpaceOnUse" color-interpolation-filters="sRGB">
<feFlood flood-opacity="0" result="BackgroundImageFix"/>
<feColorMatrix in="SourceAlpha" type="matrix" values="0 0 0 0 0 0 0 0 0 0 0 0 0 0 0 0 0 0 127 0" result="hardAlpha"/>
<feOffset dy="2.6"/>
<feGaussianBlur stdDeviation="2.6"/>
<feComposite in2="hardAlpha" operator="out"/>
<feColorMatrix type="matrix" values="0 0 0 0 0 0 0 0 0 0 0 0 0 0 0 0 0 0 0.06 0"/>
<feBlend mode="normal" in2="BackgroundImageFix" result="effect1_dropShadow_1097_828"/>
<feColorMatrix in="SourceAlpha" type="matrix" values="0 0 0 0 0 0 0 0 0 0 0 0 0 0 0 0 0 0 127 0" result="hardAlpha"/>
<feMorphology radius="1.3" operator="dilate" in="SourceAlpha" result="effect2_dropShadow_1097_828"/>
<feOffset/>
<feGaussianBlur stdDeviation="0.65"/>
<feComposite in2="hardAlpha" operator="out"/>
<feColorMatrix type="matrix" values="0 0 0 0 0 0 0 0 0 0 0 0 0 0 0 0 0 0 0.02 0"/>
<feBlend mode="normal" in2="effect1_dropShadow_1097_828" result="effect2_dropShadow_1097_828"/>
<feBlend mode="normal" in="SourceGraphic" in2="effect2_dropShadow_1097_828" result="shape"/>
</filter>
<filter id="filter2_dd_1097_828" x="15.5969" y="-51.9984" width="72.7984" height="72.7984" filterUnits="userSpaceOnUse" color-interpolation-filters="sRGB">
<feFlood flood-opacity="0" result="BackgroundImageFix"/>
<feColorMatrix in="SourceAlpha" type="matrix" values="0 0 0 0 0 0 0 0 0 0 0 0 0 0 0 0 0 0 127 0" result="hardAlpha"/>
<feOffset dy="2.6"/>
<feGaussianBlur stdDeviation="2.6"/>
<feComposite in2="hardAlpha" operator="out"/>
<feColorMatrix type="matrix" values="0 0 0 0 0 0 0 0 0 0 0 0 0 0 0 0 0 0 0.06 0"/>
<feBlend mode="normal" in2="BackgroundImageFix" result="effect1_dropShadow_1097_828"/>
<feColorMatrix in="SourceAlpha" type="matrix" values="0 0 0 0 0 0 0 0 0 0 0 0 0 0 0 0 0 0 127 0" result="hardAlpha"/>
<feMorphology radius="1.3" operator="dilate" in="SourceAlpha" result="effect2_dropShadow_1097_828"/>
<feOffset/>
<feGaussianBlur stdDeviation="0.65"/>
<feComposite in2="hardAlpha" operator="out"/>
<feColorMatrix type="matrix" values="0 0 0 0 0 0 0 0 0 0 0 0 0 0 0 0 0 0 0.02 0"/>
<feBlend mode="normal" in2="effect1_dropShadow_1097_828" result="effect2_dropShadow_1097_828"/>
<feBlend mode="normal" in="SourceGraphic" in2="effect2_dropShadow_1097_828" result="shape"/>
</filter>
<filter id="filter3_dd_1097_828" x="15.5969" y="88.4" width="72.7984" height="72.7984" filterUnits="userSpaceOnUse" color-interpolation-filters="sRGB">
<feFlood flood-opacity="0" result="BackgroundImageFix"/>
<feColorMatrix in="SourceAlpha" type="matrix" values="0 0 0 0 0 0 0 0 0 0 0 0 0 0 0 0 0 0 127 0" result="hardAlpha"/>
<feOffset dy="2.6"/>
<feGaussianBlur stdDeviation="2.6"/>
<feComposite in2="hardAlpha" operator="out"/>
<feColorMatrix type="matrix" values="0 0 0 0 0 0 0 0 0 0 0 0 0 0 0 0 0 0 0.06 0"/>
<feBlend mode="normal" in2="BackgroundImageFix" result="effect1_dropShadow_1097_828"/>
<feColorMatrix in="SourceAlpha" type="matrix" values="0 0 0 0 0 0 0 0 0 0 0 0 0 0 0 0 0 0 127 0" result="hardAlpha"/>
<feMorphology radius="1.3" operator="dilate" in="SourceAlpha" result="effect2_dropShadow_1097_828"/>
<feOffset/>
<feGaussianBlur stdDeviation="0.65"/>
<feComposite in2="hardAlpha" operator="out"/>
<feColorMatrix type="matrix" values="0 0 0 0 0 0 0 0 0 0 0 0 0 0 0 0 0 0 0.02 0"/>
<feBlend mode="normal" in2="effect1_dropShadow_1097_828" result="effect2_dropShadow_1097_828"/>
<feBlend mode="normal" in="SourceGraphic" in2="effect2_dropShadow_1097_828" result="shape"/>
</filter>
<radialGradient id="paint0_radial_1097_828" cx="0" cy="0" r="1" gradientUnits="userSpaceOnUse" gradientTransform="translate(52 52) rotate(90) scale(52 52)">
<stop stop-color="#FAFAFA" stop-opacity="0"/>
<stop offset="1" stop-color="white"/>
</radialGradient>
<clipPath id="clip0_1097_828">
<rect width="104" height="104" fill="white"/>
</clipPath>
</defs>
</svg>
