<svg width="135" height="40" viewBox="0 0 135 40" fill="none" xmlns="http://www.w3.org/2000/svg">
<path d="M61.228 30.5H56.272L49.804 10.508H54.312L58.764 24.564H58.82L63.328 10.508H67.864L61.228 30.5ZM72.7445 13.784H68.7685V10.508H72.7445V13.784ZM68.7685 16.024H72.7445V30.5H68.7685V16.024ZM75.8753 16.024H79.6553V18.712H79.7113C79.8979 18.264 80.1499 17.8533 80.4673 17.48C80.7846 17.088 81.1486 16.7613 81.5593 16.5C81.9699 16.22 82.4086 16.0053 82.8753 15.856C83.3419 15.7067 83.8273 15.632 84.3313 15.632C84.5926 15.632 84.8819 15.6787 85.1993 15.772V19.468C85.0126 19.4307 84.7886 19.4027 84.5273 19.384C84.2659 19.3467 84.0139 19.328 83.7713 19.328C83.0433 19.328 82.4273 19.4493 81.9233 19.692C81.4193 19.9347 81.0086 20.2707 80.6913 20.7C80.3926 21.1107 80.1779 21.596 80.0473 22.156C79.9166 22.716 79.8513 23.3227 79.8513 23.976V30.5H75.8753V16.024ZM86.7581 16.024H90.5381V18.712H90.5941C90.7808 18.264 91.0328 17.8533 91.3501 17.48C91.6674 17.088 92.0314 16.7613 92.4421 16.5C92.8528 16.22 93.2914 16.0053 93.7581 15.856C94.2248 15.7067 94.7101 15.632 95.2141 15.632C95.4754 15.632 95.7648 15.6787 96.0821 15.772V19.468C95.8954 19.4307 95.6714 19.4027 95.4101 19.384C95.1488 19.3467 94.8968 19.328 94.6541 19.328C93.9261 19.328 93.3101 19.4493 92.8061 19.692C92.3021 19.9347 91.8914 20.2707 91.5741 20.7C91.2754 21.1107 91.0608 21.596 90.9301 22.156C90.7994 22.716 90.7341 23.3227 90.7341 23.976V30.5H86.7581V16.024ZM101.729 13.784H97.7529V10.508H101.729V13.784ZM97.7529 16.024H101.729V30.5H97.7529V16.024ZM114.604 21.708C114.417 20.7 114.081 19.9347 113.596 19.412C113.129 18.8893 112.41 18.628 111.44 18.628C110.805 18.628 110.273 18.74 109.844 18.964C109.433 19.1693 109.097 19.4307 108.836 19.748C108.593 20.0653 108.416 20.4013 108.304 20.756C108.21 21.1107 108.154 21.428 108.136 21.708H114.604ZM108.136 24.228C108.192 25.516 108.518 26.4493 109.116 27.028C109.713 27.6067 110.572 27.896 111.692 27.896C112.494 27.896 113.185 27.7 113.764 27.308C114.342 26.8973 114.697 26.468 114.828 26.02H118.328C117.768 27.756 116.909 28.9973 115.752 29.744C114.594 30.4907 113.194 30.864 111.552 30.864C110.413 30.864 109.386 30.6867 108.472 30.332C107.557 29.9587 106.782 29.436 106.148 28.764C105.513 28.092 105.018 27.2893 104.664 26.356C104.328 25.4227 104.16 24.396 104.16 23.276C104.16 22.1933 104.337 21.1853 104.692 20.252C105.046 19.3187 105.55 18.516 106.204 17.844C106.857 17.1533 107.632 16.612 108.528 16.22C109.442 15.828 110.45 15.632 111.552 15.632C112.784 15.632 113.857 15.8747 114.772 16.36C115.686 16.8267 116.433 17.4613 117.012 18.264C117.609 19.0667 118.038 19.9813 118.3 21.008C118.561 22.0347 118.654 23.108 118.58 24.228H108.136ZM124.018 25.796C124.018 26.2253 124.102 26.5987 124.27 26.916C124.456 27.2147 124.69 27.4667 124.97 27.672C125.25 27.8587 125.567 27.9987 125.922 28.092C126.295 28.1853 126.678 28.232 127.07 28.232C127.35 28.232 127.639 28.204 127.938 28.148C128.255 28.0733 128.535 27.9707 128.778 27.84C129.039 27.6907 129.254 27.504 129.422 27.28C129.59 27.0373 129.674 26.7387 129.674 26.384C129.674 25.7867 129.272 25.3387 128.47 25.04C127.686 24.7413 126.584 24.4427 125.166 24.144C124.587 24.0133 124.018 23.864 123.458 23.696C122.916 23.5093 122.431 23.276 122.002 22.996C121.572 22.6973 121.227 22.3333 120.966 21.904C120.704 21.456 120.574 20.9147 120.574 20.28C120.574 19.3467 120.751 18.5813 121.106 17.984C121.479 17.3867 121.964 16.92 122.562 16.584C123.159 16.2293 123.831 15.9867 124.578 15.856C125.324 15.7067 126.09 15.632 126.874 15.632C127.658 15.632 128.414 15.7067 129.142 15.856C129.888 16.0053 130.551 16.2573 131.13 16.612C131.708 16.9667 132.184 17.4427 132.558 18.04C132.95 18.6187 133.183 19.356 133.258 20.252H129.478C129.422 19.4867 129.132 18.9733 128.61 18.712C128.087 18.432 127.471 18.292 126.762 18.292C126.538 18.292 126.295 18.3107 126.034 18.348C125.772 18.3667 125.53 18.4227 125.306 18.516C125.1 18.6093 124.923 18.7493 124.774 18.936C124.624 19.104 124.55 19.3373 124.55 19.636C124.55 19.9907 124.68 20.28 124.942 20.504C125.203 20.728 125.539 20.9147 125.95 21.064C126.379 21.1947 126.864 21.316 127.406 21.428C127.947 21.54 128.498 21.6613 129.058 21.792C129.636 21.9227 130.196 22.0813 130.738 22.268C131.298 22.4547 131.792 22.7067 132.222 23.024C132.651 23.3227 132.996 23.7053 133.258 24.172C133.519 24.62 133.65 25.18 133.65 25.852C133.65 26.804 133.454 27.6067 133.062 28.26C132.688 28.8947 132.194 29.408 131.578 29.8C130.962 30.192 130.252 30.4627 129.45 30.612C128.666 30.78 127.863 30.864 127.042 30.864C126.202 30.864 125.38 30.78 124.578 30.612C123.775 30.444 123.056 30.164 122.422 29.772C121.806 29.38 121.292 28.8667 120.882 28.232C120.49 27.5787 120.275 26.7667 120.238 25.796H124.018Z" fill="#7868E6"/>
<circle cx="25" cy="18.5" r="7" fill="#7868E6"/>
<rect y="21.5" width="36" height="12" rx="6" fill="#7868E6"/>
<circle cx="12" cy="15.5" r="10" fill="#7868E6"/>
<path d="M2.42676 20.9462C4.89454 25.3064 12.6437 29.3197 19.1144 23.7449C24.4565 19.1425 29.7564 20.0398 32.5872 20.9727" stroke="white" stroke-width="2"/>
</svg>
